REM DIRINDEX 1\2\6,1\2\7,1\2\8,1\3\9,1\3\10,1\3\11,1\4\12,1\4\13,1\4\14,1\5\15,1\5\16,1\5\17,1\5\18
REM DIRNAME cjc019,folder01,folder02,folder03,folder04,folder05,folder06,folder07,folder08,folder09,folder10,folder11,folder12,folder13,folder14,folder15,folder16,folder17
TITLE ""
FILE "2Q_t_0582-0599.mp3" MP3
  TRACK 01 AUDIO
    TITLE "13:cjc019_3223"
    INDEX 01 00:00:00
  TRACK 02 AUDIO
    TITLE "0:"
    INDEX 01 00:01:17
  TRACK 03 AUDIO
    TITLE "14:cjc019_3224"
    INDEX 01 00:02:00
  TRACK 04 AUDIO
    TITLE "0:"
    INDEX 01 00:05:46
  TRACK 05 AUDIO
    TITLE "13:cjc019_3225"
    INDEX 01 00:06:24
  TRACK 06 AUDIO
    TITLE "0:"
    INDEX 01 00:07:62
  TRACK 07 AUDIO
    TITLE "14:cjc019_3226"
    INDEX 01 00:08:44
  TRACK 08 AUDIO
    TITLE "0:"
    INDEX 01 00:10:25
  TRACK 09 AUDIO
    TITLE "13:cjc019_3227"
    INDEX 01 00:11:05
  TRACK 10 AUDIO
    TITLE "0:"
    INDEX 01 00:12:52
  TRACK 11 AUDIO
    TITLE "14:cjc019_3228"
    INDEX 01 00:13:33
  TRACK 12 AUDIO
    TITLE "0:"
    INDEX 01 00:16:42
  TRACK 13 AUDIO
    TITLE "13:cjc019_3229"
    INDEX 01 00:17:27
  TRACK 14 AUDIO
    TITLE "0:"
    INDEX 01 00:18:72
  TRACK 15 AUDIO
    TITLE "14:cjc019_3230"
    INDEX 01 00:19:54
  TRACK 16 AUDIO
    TITLE "0:"
    INDEX 01 00:20:65
  TRACK 17 AUDIO
    TITLE "13:cjc019_3231"
    INDEX 01 00:21:37
  TRACK 18 AUDIO
    TITLE "0:"
    INDEX 01 00:22:68
  TRACK 19 AUDIO
    TITLE "14:cjc019_3232"
    INDEX 01 00:23:48
  TRACK 20 AUDIO
    TITLE "0:"
    INDEX 01 00:25:05
  TRACK 21 AUDIO
    TITLE "13:cjc019_3233"
    INDEX 01 00:25:66
  TRACK 22 AUDIO
    TITLE "0:"
    INDEX 01 00:27:02
  TRACK 23 AUDIO
    TITLE "14:cjc019_3234"
    INDEX 01 00:27:61
  TRACK 24 AUDIO
    TITLE "0:"
    INDEX 01 00:30:08
  TRACK 25 AUDIO
    TITLE "13:cjc019_3235"
    INDEX 01 00:30:63
  TRACK 26 AUDIO
    TITLE "0:"
    INDEX 01 00:32:15
  TRACK 27 AUDIO
    TITLE "14:cjc019_3236"
    INDEX 01 00:32:74
  TRACK 28 AUDIO
    TITLE "0:"
    INDEX 01 00:35:10
  TRACK 29 AUDIO
    TITLE "13:cjc019_3237"
    INDEX 01 00:35:61
  TRACK 30 AUDIO
    TITLE "0:"
    INDEX 01 00:37:22
  TRACK 31 AUDIO
    TITLE "14:cjc019_3238"
    INDEX 01 00:37:73
  TRACK 32 AUDIO
    TITLE "0:"
    INDEX 01 00:40:64
  TRACK 33 AUDIO
    TITLE "13:cjc019_3239"
    INDEX 01 00:41:44
  TRACK 34 AUDIO
    TITLE "0:"
    INDEX 01 00:42:61
  TRACK 35 AUDIO
    TITLE "14:cjc019_3240"
    INDEX 01 00:43:46
  TRACK 36 AUDIO
    TITLE "0:"
    INDEX 01 00:44:54
  TRACK 37 AUDIO
    TITLE "13:cjc019_3241"
    INDEX 01 00:45:33
  TRACK 38 AUDIO
    TITLE "0:"
    INDEX 01 00:47:03
  TRACK 39 AUDIO
    TITLE "14:cjc019_3242"
    INDEX 01 00:47:64
  TRACK 40 AUDIO
    TITLE "0:"
    INDEX 01 00:49:16
  TRACK 41 AUDIO
    TITLE "13:cjc019_3243"
    INDEX 01 00:50:01
  TRACK 42 AUDIO
    TITLE "0:"
    INDEX 01 00:51:28
  TRACK 43 AUDIO
    TITLE "14:cjc019_3244"
    INDEX 01 00:52:24
  TRACK 44 AUDIO
    TITLE "0:"
    INDEX 01 00:54:46
  TRACK 45 AUDIO
    TITLE "13:cjc019_3245"
    INDEX 01 00:55:22
  TRACK 46 AUDIO
    TITLE "0:"
    INDEX 01 00:56:65
  TRACK 47 AUDIO
    TITLE "14:cjc019_3246"
    INDEX 01 00:57:35
  TRACK 48 AUDIO
    TITLE "0:"
    INDEX 01 01:01:36
  TRACK 49 AUDIO
    TITLE "13:cjc019_3247"
    INDEX 01 01:02:16
  TRACK 50 AUDIO
    TITLE "0:"
    INDEX 01 01:03:41
  TRACK 51 AUDIO
    TITLE "14:cjc019_3248"
    INDEX 01 01:04:27
  TRACK 52 AUDIO
    TITLE "0:"
    INDEX 01 01:05:42
  TRACK 53 AUDIO
    TITLE "13:cjc019_3249"
    INDEX 01 01:06:22
  TRACK 54 AUDIO
    TITLE "0:"
    INDEX 01 01:07:51
  TRACK 55 AUDIO
    TITLE "14:cjc019_3250"
    INDEX 01 01:08:36
  TRACK 56 AUDIO
    TITLE "0:"
    INDEX 01 01:11:09
  TRACK 57 AUDIO
    TITLE "13:cjc019_3251"
    INDEX 01 01:11:58
  TRACK 58 AUDIO
    TITLE "0:"
    INDEX 01 01:13:20
  TRACK 59 AUDIO
    TITLE "14:cjc019_3252"
    INDEX 01 01:14:06
  TRACK 60 AUDIO
    TITLE "0:"
    INDEX 01 01:16:22
  TRACK 61 AUDIO
    TITLE "13:cjc019_3253"
    INDEX 01 01:17:02
  TRACK 62 AUDIO
    TITLE "0:"
    INDEX 01 01:18:11
  TRACK 63 AUDIO
    TITLE "14:cjc019_3254"
    INDEX 01 01:18:72
  TRACK 64 AUDIO
    TITLE "0:"
    INDEX 01 01:21:12
  TRACK 65 AUDIO
    TITLE "13:cjc019_3255"
    INDEX 01 01:21:69
  TRACK 66 AUDIO
    TITLE "0:"
    INDEX 01 01:22:74
  TRACK 67 AUDIO
    TITLE "14:cjc019_3256"
    INDEX 01 01:23:62
  TRACK 68 AUDIO
    TITLE "0:"
    INDEX 01 01:26:52
  TRACK 69 AUDIO
    TITLE "13:cjc019_3257"
    INDEX 01 01:27:34
  TRACK 70 AUDIO
    TITLE "0:"
    INDEX 01 01:28:71
  TRACK 71 AUDIO
    TITLE "14:cjc019_3258"
    INDEX 01 01:29:52
  TRACK 72 AUDIO
    TITLE "0:"
    INDEX 01 01:33:03
